<svg width="37" height="31" viewBox="0 0 37 31" fill="none" xmlns="http://www.w3.org/2000/svg">
<g clip-path="url(#clip0_2_26)">
<path d="M29.0905 21.6315L25.207 17.748C26.145 16.439 26.5563 14.8251 26.3592 13.2268C26.1621 11.6286 25.371 10.163 24.143 9.12111C22.9151 8.07927 21.3401 7.53745 19.7311 7.6033C18.1221 7.66916 16.5967 8.33785 15.458 9.47656C14.3193 10.6153 13.6506 12.1406 13.5848 13.7497C13.5189 15.3587 14.0607 16.9336 15.1026 18.1615C16.1444 19.3895 17.6101 20.1806 19.2083 20.3777C20.8066 20.5748 22.4205 20.1635 23.7295 19.2255L27.613 23.109C27.8145 23.2738 28.0701 23.3578 28.3301 23.3448C28.5901 23.3318 28.836 23.2226 29.02 23.0386C29.2041 22.8545 29.3132 22.6086 29.3263 22.3486C29.3393 22.0886 29.2552 21.833 29.0905 21.6315ZM15.5125 14.028C15.5125 13.138 15.7764 12.268 16.2709 11.5279C16.7653 10.7879 17.4681 10.2111 18.2904 9.87054C19.1127 9.52995 20.0175 9.44083 20.8904 9.61447C21.7633 9.7881 22.5651 10.2167 23.1945 10.846C23.8238 11.4754 24.2524 12.2772 24.426 13.1501C24.5996 14.023 24.5105 14.9278 24.1699 15.7501C23.8293 16.5723 23.2526 17.2751 22.5125 17.7696C21.7725 18.2641 20.9025 18.528 20.0125 18.528C18.819 18.528 17.6744 18.0539 16.8305 17.21C15.9866 16.3661 15.5125 15.2215 15.5125 14.028Z" fill="#959595"/>
</g>
<defs>
<clipPath id="clip0_2_26">
<rect width="18" height="18" fill="white" transform="translate(11.98 6)"/>
</clipPath>
</defs>
</svg>
