<svg width="45" height="46" viewBox="0 0 45 46" fill="none" xmlns="http://www.w3.org/2000/svg">
<rect x="0.5" y="1.39001" width="44" height="44" rx="22" fill="white"/>
<rect x="0.5" y="1.39001" width="44" height="44" rx="22" stroke="#E8E8E8"/>
<path d="M19.667 17.785L21.947 19.877H28.164V21.969H16.835V18.133C16.8353 18.0868 16.8446 18.0411 16.8626 17.9986C16.8805 17.956 16.9067 17.9175 16.9396 17.885C16.9724 17.8526 17.0114 17.827 17.0542 17.8097C17.097 17.7923 17.1428 17.7836 17.189 17.784L19.667 17.785ZM19.667 16.39H17.189C16.7232 16.3865 16.275 16.5682 15.9431 16.8951C15.6112 17.2219 15.4227 17.6672 15.419 18.133V21.969H14.419C14.3678 21.9689 14.3172 21.9798 14.2706 22.001C14.224 22.0223 14.1825 22.0533 14.149 22.092C14.117 22.131 14.094 22.1766 14.0816 22.2255C14.0691 22.2744 14.0676 22.3254 14.077 22.375L15.313 29.07C15.3442 29.2323 15.4313 29.3784 15.5592 29.483C15.6872 29.5875 15.8478 29.6438 16.013 29.642H28.989C29.1542 29.6438 29.3148 29.5875 29.4427 29.483C29.5707 29.3784 29.6578 29.2323 29.689 29.07L30.927 22.375C30.9355 22.3249 30.9328 22.2736 30.9191 22.2247C30.9055 22.1758 30.8812 22.1305 30.848 22.092C30.8145 22.0533 30.773 22.0223 30.7264 22.001C30.6798 21.9798 30.6292 21.9689 30.578 21.969H29.578V19.179C29.578 19.0864 29.5596 18.9947 29.524 18.9093C29.4883 18.8238 29.436 18.7463 29.3701 18.6812C29.3043 18.6161 29.2262 18.5647 29.1403 18.53C29.0545 18.4953 28.9626 18.4779 28.87 18.479H22.5L20.836 16.904C20.6848 16.7453 20.5037 16.6181 20.303 16.5299C20.1023 16.4416 19.8862 16.3941 19.667 16.39Z" fill="#191919"/>
</svg>
