<svg width="45" height="46" viewBox="0 0 45 46" fill="none" xmlns="http://www.w3.org/2000/svg">
<rect x="0.5" y="0.800003" width="44" height="44" rx="22" fill="white"/>
<rect x="0.5" y="0.800003" width="44" height="44" rx="22" stroke="#E8E8E8"/>
<g clip-path="url(#clip0_2_385)">
<path d="M22.5 23.3332L31 16.9474V16.239C31.0023 16.0957 30.9477 15.9573 30.8481 15.8542C30.7485 15.7511 30.6121 15.6916 30.4688 15.6889H14.5313C14.3878 15.6916 14.2512 15.7512 14.1516 15.8545C14.052 15.9578 13.9975 16.0965 14 16.24V16.9337L22.5 23.3332Z" fill="#191919"/>
<path d="M25.7007 22.2821L31 26.2516V20.0966V18.306L25.7007 22.2821Z" fill="#191919"/>
<path d="M24.7979 22.9611L23.1092 24.2333C22.9328 24.3635 22.7193 24.4338 22.5 24.4338C22.2808 24.4338 22.0673 24.3635 21.8909 24.2333L20.1776 22.9493L14 27.5266V28.3605C13.9975 28.504 14.052 28.6425 14.1517 28.7458C14.2513 28.849 14.3878 28.9085 14.5313 28.9111H30.4688C30.6122 28.9085 30.7488 28.849 30.8484 28.7458C30.948 28.6425 31.0026 28.504 31 28.3605V27.6097L24.7979 22.9611Z" fill="#191919"/>
<path d="M19.2719 22.2707L14 18.2918V20.0966V26.1694L19.2719 22.2707Z" fill="#191919"/>
</g>
<defs>
<clipPath id="clip0_2_385">
<rect width="17" height="17" fill="white" transform="translate(14 13.8)"/>
</clipPath>
</defs>
</svg>
