<svg width="45" height="46" viewBox="0 0 45 46" fill="none" xmlns="http://www.w3.org/2000/svg">
<rect y="0.47998" width="45" height="45" rx="22.5" fill="#0057FF"/>
<path d="M16.5 21.0425H19.3125V28.5425H16.5V21.0425ZM22.7878 28.2678C22.9688 28.4459 23.1862 28.5397 23.4225 28.5425H27.2812C27.5212 28.5425 27.7612 28.4506 27.9441 28.2678L30.2878 25.924C30.4659 25.7459 30.5578 25.4956 30.5625 25.2612V21.98C30.5625 21.4615 30.1453 21.0425 29.625 21.0425H24.9375L26.3438 18.6987C26.3438 18.6987 26.8125 17.9562 26.8125 17.2925V16.355C26.8125 15.8365 26.3934 15.4175 25.875 15.4175L24.9375 17.2925L21.1875 21.0425V26.6675L22.7878 28.2678Z" fill="white"/>
</svg>
