<svg width="76" height="76" viewBox="0 0 76 76" fill="none" xmlns="http://www.w3.org/2000/svg">
<rect x="0.5" y="0.390137" width="75" height="75" rx="37.5" fill="#0057FF"/>
<path d="M27 35.3276H31.6875V47.8276H27V35.3276ZM37.4797 47.3698C37.7812 47.6667 38.1438 47.8229 38.5375 47.8276H44.9688C45.3687 47.8276 45.7687 47.6745 46.0734 47.3698L49.9797 43.4636C50.2766 43.1667 50.4297 42.7495 50.4375 42.3589V36.8901C50.4375 36.0261 49.7422 35.3276 48.875 35.3276H41.0625L43.4062 31.4214C43.4062 31.4214 44.1875 30.1839 44.1875 29.0776V27.5151C44.1875 26.6511 43.4891 25.9526 42.625 25.9526L41.0625 29.0776L34.8125 35.3276V44.7026L37.4797 47.3698Z" fill="white"/>
</svg>
