<svg width="42" height="55" viewBox="0 0 42 55" fill="none" xmlns="http://www.w3.org/2000/svg">
<g clip-path="url(#clip0_2_34)">
<path d="M21.4702 34.3933C21.9487 34.3515 22.3969 34.1424 22.7365 33.8028C23.0762 33.4631 23.2855 33.0147 23.3273 32.5362H19.613C19.6549 33.0147 19.8642 33.4631 20.2038 33.8028C20.5435 34.1424 20.9917 34.3515 21.4702 34.3933Z" fill="black"/>
<path d="M25.7134 22.9645C25.7134 21.3673 24.2279 20.6941 22.3986 20.5186V19.0719C22.3891 18.9401 22.328 18.8175 22.2286 18.7305C22.1291 18.6436 21.9995 18.5994 21.8677 18.6076H21.0715C20.94 18.5999 20.811 18.6443 20.7119 18.7312C20.6129 18.8181 20.5519 18.9405 20.5424 19.0719V20.5186C18.7131 20.6931 17.2275 21.3692 17.2275 22.9645C17.2275 30.1237 14.9709 29.8015 14.9709 30.7505V31.6076H27.9709V30.7514C27.9709 29.7514 25.7134 30.1228 25.7134 22.9645Z" fill="black"/>
<path d="M21.4702 34.3933C21.9487 34.3515 22.3969 34.1424 22.7365 33.8028C23.0762 33.4631 23.2855 33.0147 23.3273 32.5362H19.613C19.6549 33.0147 19.8642 33.4631 20.2038 33.8028C20.5435 34.1424 20.9917 34.3515 21.4702 34.3933Z" fill="black"/>
<path d="M25.7134 22.9645C25.7134 21.3673 24.2279 20.6941 22.3986 20.5186V19.0719C22.3891 18.9401 22.328 18.8175 22.2286 18.7305C22.1291 18.6436 21.9995 18.5994 21.8677 18.6076H21.0715C20.94 18.5999 20.811 18.6443 20.7119 18.7312C20.6129 18.8181 20.5519 18.9405 20.5424 19.0719V20.5186C18.7131 20.6931 17.2275 21.3692 17.2275 22.9645C17.2275 30.1237 14.9709 29.8015 14.9709 30.7505V31.6076H27.9709V30.7514C27.9709 29.7514 25.7134 30.1228 25.7134 22.9645Z" fill="black"/>
</g>
<defs>
<clipPath id="clip0_2_34">
<rect width="13" height="35" fill="white" transform="translate(14.97 9)"/>
</clipPath>
</defs>
</svg>
