<svg width="45" height="46" viewBox="0 0 45 46" fill="none" xmlns="http://www.w3.org/2000/svg">
<rect x="0.5" y="0.690002" width="44" height="44" rx="22" fill="white"/>
<rect x="0.5" y="0.690002" width="44" height="44" rx="22" stroke="#E8E8E8"/>
<g clip-path="url(#clip0_2_406)">
<path d="M30.6139 19.2159H28.1027C28.0515 19.2159 28.0024 19.2362 27.9662 19.2724C27.93 19.3086 27.9096 19.3577 27.9096 19.409V20.5686C27.9096 20.6198 27.93 20.6689 27.9662 20.7051C28.0024 20.7413 28.0515 20.7617 28.1027 20.7617H29.4554V29.2617H15.5458V20.7617H16.8973C16.9485 20.7617 16.9976 20.7413 17.0338 20.7051C17.07 20.6689 17.0904 20.6198 17.0904 20.5686V19.409C17.0904 19.3577 17.07 19.3086 17.0338 19.2724C16.9976 19.2362 16.9485 19.2159 16.8973 19.2159H14.3861C14.2837 19.2159 14.1855 19.2566 14.1131 19.329C14.0407 19.4014 14 19.4996 14 19.602V30.4201C14 30.5225 14.0407 30.6207 14.1131 30.6931C14.1855 30.7656 14.2837 30.8062 14.3861 30.8062H30.6139C30.7163 30.8062 30.8145 30.7656 30.8869 30.6931C30.9593 30.6207 31 30.5225 31 30.4201V19.602C31 19.4996 30.9593 19.4014 30.8869 19.329C30.8145 19.2566 30.7163 19.2159 30.6139 19.2159Z" fill="#191919"/>
<path d="M26.2546 18.5681L22.4976 14.5767L18.7479 18.5681C18.6978 18.6236 18.6649 18.6925 18.6532 18.7663C18.6415 18.8402 18.6515 18.9158 18.682 18.9841C18.7124 19.0524 18.7621 19.1103 18.8249 19.151C18.8877 19.1916 18.9609 19.2131 19.0356 19.2129H20.953V24.4343C20.953 24.4596 20.958 24.4848 20.9677 24.5082C20.9774 24.5316 20.9916 24.5529 21.0096 24.5708C21.0275 24.5887 21.0488 24.603 21.0722 24.6127C21.0956 24.6224 21.1207 24.6274 21.1461 24.6274H23.8479C23.8732 24.6274 23.8983 24.6224 23.9217 24.6127C23.9452 24.603 23.9665 24.5887 23.9844 24.5708C24.0023 24.5529 24.0165 24.5316 24.0262 24.5082C24.0359 24.4848 24.0409 24.4596 24.0409 24.4343V19.2129H25.9644C26.0391 19.2131 26.1124 19.1916 26.1751 19.151C26.2379 19.1103 26.2876 19.0524 26.318 18.9841C26.3485 18.9158 26.3585 18.8402 26.3468 18.7663C26.3351 18.6925 26.3022 18.6236 26.2521 18.5681H26.2546Z" fill="#191919"/>
</g>
<defs>
<clipPath id="clip0_2_406">
<rect width="17" height="17" fill="white" transform="translate(14 14.19)"/>
</clipPath>
</defs>
</svg>
